<svg width="99" height="100" viewBox="0 0 99 100" fill="none" xmlns="http://www.w3.org/2000/svg">
<path fill-rule="evenodd" clip-rule="evenodd" d="M29.4567 0.111825C19.2926 0.964958 9.93975 6.90757 4.5411 15.9425C1.15736 21.6052 -0.413721 28.4034 0.0932492 35.1888C0.944851 46.5888 7.29893 56.3723 17.3523 61.762C27.4216 67.1602 40.3328 66.6343 49.7975 60.4403L51.1535 59.553L52.645 61.0457L54.1364 62.5387L53.5739 63.1852C53.2645 63.5408 52.9073 64.1822 52.7802 64.6108C52.2976 66.2357 51.7874 65.6586 69.4095 83.4149C87.2412 101.382 85.9671 100.259 87.9897 99.8039C89.8832 99.3783 92.3037 97.6679 94.9511 94.8853C98.0865 91.5894 99.3984 88.9798 98.8955 87.0395C98.7076 86.3144 96.868 84.3882 82.5706 69.9454C65.0738 52.2704 65.6348 52.7752 64.0265 53.2616C63.6019 53.3898 62.9663 53.7503 62.6139 54.0625L61.9733 54.6302L60.4892 53.1238L59.0051 51.6173L59.5909 50.7389C62.5641 46.2811 64.4037 40.7512 64.7987 35.0844C65.7346 21.6577 58.6682 9.23941 46.6979 3.27393C41.6952 0.780803 35.3499 -0.382969 29.4567 0.111825ZM35.8553 9.38818C38.3148 9.7907 40.7179 10.5301 42.5749 11.4553C49.2572 14.7854 53.823 20.7168 55.434 28.1608C55.8987 30.3085 55.8952 35.1767 55.4272 37.349C53.5686 45.9759 47.6876 52.5908 39.5302 55.2296C31.2395 57.9116 22.1187 55.6707 15.901 49.4243C8.86595 42.3568 7.04322 31.561 11.3537 22.4915C15.7634 13.2134 25.9483 7.76656 35.8553 9.38818Z" fill="#aaaaaa"/>
</svg>
